<mxfile host="app.diagrams.net" agent="Mozilla/5.0 (Windows NT 10.0; Win64; x64) AppleWebKit/537.36 (KHTML, like Gecko) Chrome/122.0.0.0 Safari/537.36" version="26.1.0">
  <diagram name="Page-1" id="xQZh7DtqDWPi7ovFSn_U">
    <mxGraphModel dx="1434" dy="746" grid="1" gridSize="10" guides="1" tooltips="1" connect="1" arrows="1" fold="1" page="1" pageScale="1" pageWidth="1169" pageHeight="827" math="0" shadow="0">
      <root>
        <mxCell id="0" />
        <mxCell id="1" parent="0" />
        <mxCell id="B9Pwn_NhOflRIA-IiDNd-1" value="" style="rounded=1;whiteSpace=wrap;html=1;fillColor=none;dashed=1;" vertex="1" parent="1">
          <mxGeometry x="90" y="160" width="520" height="560" as="geometry" />
        </mxCell>
        <mxCell id="B9Pwn_NhOflRIA-IiDNd-2" value="" style="rounded=1;whiteSpace=wrap;html=1;fillColor=none;dashed=1;" vertex="1" parent="1">
          <mxGeometry x="770" y="160" width="360" height="550" as="geometry" />
        </mxCell>
        <mxCell id="B9Pwn_NhOflRIA-IiDNd-3" value="&lt;font style=&quot;font-size: 25px;&quot;&gt;&lt;b&gt;CRM&lt;/b&gt;&lt;/font&gt;" style="rounded=1;whiteSpace=wrap;html=1;fillColor=#dae8fc;strokeColor=#6c8ebf;" vertex="1" parent="1">
          <mxGeometry x="250" y="130" width="200" height="60" as="geometry" />
        </mxCell>
        <mxCell id="B9Pwn_NhOflRIA-IiDNd-4" value="&lt;font style=&quot;font-size: 25px;&quot;&gt;&lt;b&gt;ERP&lt;/b&gt;&lt;/font&gt;" style="rounded=1;whiteSpace=wrap;html=1;fillColor=#fff2cc;strokeColor=#d6b656;" vertex="1" parent="1">
          <mxGeometry x="850" y="130" width="200" height="60" as="geometry" />
        </mxCell>
        <mxCell id="B9Pwn_NhOflRIA-IiDNd-5" value="crm_sales_details" style="swimlane;fontStyle=1;childLayout=stackLayout;horizontal=1;startSize=30;horizontalStack=0;resizeParent=1;resizeParentMax=0;resizeLast=0;collapsible=1;marginBottom=0;whiteSpace=wrap;html=1;fillColor=#dae8fc;strokeColor=#6c8ebf;" vertex="1" parent="1">
          <mxGeometry x="120" y="400" width="140" height="120" as="geometry" />
        </mxCell>
        <mxCell id="B9Pwn_NhOflRIA-IiDNd-6" value="prd_key" style="text;strokeColor=none;fillColor=none;align=left;verticalAlign=middle;spacingLeft=4;spacingRight=4;overflow=hidden;points=[[0,0.5],[1,0.5]];portConstraint=eastwest;rotatable=0;whiteSpace=wrap;html=1;" vertex="1" parent="B9Pwn_NhOflRIA-IiDNd-5">
          <mxGeometry y="30" width="140" height="30" as="geometry" />
        </mxCell>
        <mxCell id="B9Pwn_NhOflRIA-IiDNd-7" value="cst_id" style="text;strokeColor=none;fillColor=none;align=left;verticalAlign=middle;spacingLeft=4;spacingRight=4;overflow=hidden;points=[[0,0.5],[1,0.5]];portConstraint=eastwest;rotatable=0;whiteSpace=wrap;html=1;" vertex="1" parent="B9Pwn_NhOflRIA-IiDNd-5">
          <mxGeometry y="60" width="140" height="30" as="geometry" />
        </mxCell>
        <mxCell id="B9Pwn_NhOflRIA-IiDNd-28" value="SALES" style="rounded=0;whiteSpace=wrap;html=1;fillColor=#e1d5e7;strokeColor=#9673a6;fontStyle=1" vertex="1" parent="B9Pwn_NhOflRIA-IiDNd-5">
          <mxGeometry y="90" width="140" height="30" as="geometry" />
        </mxCell>
        <mxCell id="B9Pwn_NhOflRIA-IiDNd-9" value="Customer Relationship Management" style="text;html=1;align=center;verticalAlign=middle;whiteSpace=wrap;rounded=0;fontStyle=1" vertex="1" parent="1">
          <mxGeometry x="240" y="90" width="215" height="30" as="geometry" />
        </mxCell>
        <mxCell id="B9Pwn_NhOflRIA-IiDNd-10" value="Transaction Records about Sales &amp;amp; Others" style="text;html=1;align=center;verticalAlign=middle;whiteSpace=wrap;rounded=0;fontStyle=1;" vertex="1" parent="1">
          <mxGeometry x="110" y="360" width="170" height="30" as="geometry" />
        </mxCell>
        <mxCell id="B9Pwn_NhOflRIA-IiDNd-11" value="crm_prd_info" style="swimlane;fontStyle=1;childLayout=stackLayout;horizontal=1;startSize=30;horizontalStack=0;resizeParent=1;resizeParentMax=0;resizeLast=0;collapsible=1;marginBottom=0;whiteSpace=wrap;html=1;fillColor=#dae8fc;strokeColor=#6c8ebf;" vertex="1" parent="1">
          <mxGeometry x="400" y="300" width="140" height="90" as="geometry" />
        </mxCell>
        <mxCell id="B9Pwn_NhOflRIA-IiDNd-12" value="prd_key" style="text;strokeColor=none;fillColor=none;align=left;verticalAlign=middle;spacingLeft=4;spacingRight=4;overflow=hidden;points=[[0,0.5],[1,0.5]];portConstraint=eastwest;rotatable=0;whiteSpace=wrap;html=1;" vertex="1" parent="B9Pwn_NhOflRIA-IiDNd-11">
          <mxGeometry y="30" width="140" height="30" as="geometry" />
        </mxCell>
        <mxCell id="B9Pwn_NhOflRIA-IiDNd-33" value="PRODUCTS" style="rounded=0;whiteSpace=wrap;html=1;fillColor=#f8cecc;strokeColor=#b85450;fontStyle=1" vertex="1" parent="B9Pwn_NhOflRIA-IiDNd-11">
          <mxGeometry y="60" width="140" height="30" as="geometry" />
        </mxCell>
        <mxCell id="B9Pwn_NhOflRIA-IiDNd-14" value="crm_cust_info" style="swimlane;fontStyle=1;childLayout=stackLayout;horizontal=1;startSize=30;horizontalStack=0;resizeParent=1;resizeParentMax=0;resizeLast=0;collapsible=1;marginBottom=0;whiteSpace=wrap;html=1;fillColor=#dae8fc;strokeColor=#6c8ebf;" vertex="1" parent="1">
          <mxGeometry x="400" y="500" width="140" height="90" as="geometry" />
        </mxCell>
        <mxCell id="B9Pwn_NhOflRIA-IiDNd-15" value="cst_id" style="text;strokeColor=none;fillColor=none;align=left;verticalAlign=middle;spacingLeft=4;spacingRight=4;overflow=hidden;points=[[0,0.5],[1,0.5]];portConstraint=eastwest;rotatable=0;whiteSpace=wrap;html=1;" vertex="1" parent="B9Pwn_NhOflRIA-IiDNd-14">
          <mxGeometry y="30" width="140" height="30" as="geometry" />
        </mxCell>
        <mxCell id="B9Pwn_NhOflRIA-IiDNd-16" value="cst_key" style="text;strokeColor=none;fillColor=none;align=left;verticalAlign=middle;spacingLeft=4;spacingRight=4;overflow=hidden;points=[[0,0.5],[1,0.5]];portConstraint=eastwest;rotatable=0;whiteSpace=wrap;html=1;" vertex="1" parent="B9Pwn_NhOflRIA-IiDNd-14">
          <mxGeometry y="60" width="140" height="30" as="geometry" />
        </mxCell>
        <mxCell id="B9Pwn_NhOflRIA-IiDNd-17" value="erp_px_cat_g1v2" style="swimlane;fontStyle=1;childLayout=stackLayout;horizontal=1;startSize=30;horizontalStack=0;resizeParent=1;resizeParentMax=0;resizeLast=0;collapsible=1;marginBottom=0;whiteSpace=wrap;html=1;fillColor=#fff2cc;strokeColor=#d6b656;" vertex="1" parent="1">
          <mxGeometry x="870" y="300" width="140" height="60" as="geometry" />
        </mxCell>
        <mxCell id="B9Pwn_NhOflRIA-IiDNd-18" value="id" style="text;strokeColor=none;fillColor=none;align=left;verticalAlign=middle;spacingLeft=4;spacingRight=4;overflow=hidden;points=[[0,0.5],[1,0.5]];portConstraint=eastwest;rotatable=0;whiteSpace=wrap;html=1;" vertex="1" parent="B9Pwn_NhOflRIA-IiDNd-17">
          <mxGeometry y="30" width="140" height="30" as="geometry" />
        </mxCell>
        <mxCell id="B9Pwn_NhOflRIA-IiDNd-19" value="erp_cust_az12" style="swimlane;fontStyle=1;childLayout=stackLayout;horizontal=1;startSize=30;horizontalStack=0;resizeParent=1;resizeParentMax=0;resizeLast=0;collapsible=1;marginBottom=0;whiteSpace=wrap;html=1;fillColor=#fff2cc;strokeColor=#d6b656;" vertex="1" parent="1">
          <mxGeometry x="870" y="460" width="140" height="60" as="geometry" />
        </mxCell>
        <mxCell id="B9Pwn_NhOflRIA-IiDNd-20" value="cid" style="text;strokeColor=none;fillColor=none;align=left;verticalAlign=middle;spacingLeft=4;spacingRight=4;overflow=hidden;points=[[0,0.5],[1,0.5]];portConstraint=eastwest;rotatable=0;whiteSpace=wrap;html=1;" vertex="1" parent="B9Pwn_NhOflRIA-IiDNd-19">
          <mxGeometry y="30" width="140" height="30" as="geometry" />
        </mxCell>
        <mxCell id="B9Pwn_NhOflRIA-IiDNd-21" value="erp_loc_a101" style="swimlane;fontStyle=1;childLayout=stackLayout;horizontal=1;startSize=30;horizontalStack=0;resizeParent=1;resizeParentMax=0;resizeLast=0;collapsible=1;marginBottom=0;whiteSpace=wrap;html=1;fillColor=#fff2cc;strokeColor=#d6b656;" vertex="1" parent="1">
          <mxGeometry x="870" y="600" width="140" height="60" as="geometry" />
        </mxCell>
        <mxCell id="B9Pwn_NhOflRIA-IiDNd-22" value="cid" style="text;strokeColor=none;fillColor=none;align=left;verticalAlign=middle;spacingLeft=4;spacingRight=4;overflow=hidden;points=[[0,0.5],[1,0.5]];portConstraint=eastwest;rotatable=0;whiteSpace=wrap;html=1;" vertex="1" parent="B9Pwn_NhOflRIA-IiDNd-21">
          <mxGeometry y="30" width="140" height="30" as="geometry" />
        </mxCell>
        <mxCell id="B9Pwn_NhOflRIA-IiDNd-23" value="Current &amp;amp; History Product Information" style="text;html=1;align=center;verticalAlign=middle;whiteSpace=wrap;rounded=0;fontStyle=1;" vertex="1" parent="1">
          <mxGeometry x="385" y="260" width="170" height="30" as="geometry" />
        </mxCell>
        <mxCell id="B9Pwn_NhOflRIA-IiDNd-24" value="Customer Information" style="text;html=1;align=center;verticalAlign=middle;whiteSpace=wrap;rounded=0;fontStyle=1;" vertex="1" parent="1">
          <mxGeometry x="380" y="455" width="170" height="30" as="geometry" />
        </mxCell>
        <mxCell id="B9Pwn_NhOflRIA-IiDNd-25" value="Product Categories" style="text;html=1;align=center;verticalAlign=middle;whiteSpace=wrap;rounded=0;fontStyle=1;" vertex="1" parent="1">
          <mxGeometry x="850" y="260" width="170" height="30" as="geometry" />
        </mxCell>
        <mxCell id="B9Pwn_NhOflRIA-IiDNd-26" value="Extra Customer Information (Birthdate)" style="text;html=1;align=center;verticalAlign=middle;whiteSpace=wrap;rounded=0;fontStyle=1;" vertex="1" parent="1">
          <mxGeometry x="820" y="430" width="230" height="30" as="geometry" />
        </mxCell>
        <mxCell id="B9Pwn_NhOflRIA-IiDNd-27" value="Location of Customers (Country)" style="text;html=1;align=center;verticalAlign=middle;whiteSpace=wrap;rounded=0;fontStyle=1;" vertex="1" parent="1">
          <mxGeometry x="820" y="570" width="230" height="30" as="geometry" />
        </mxCell>
        <mxCell id="B9Pwn_NhOflRIA-IiDNd-34" value="PRODUCTS" style="rounded=0;whiteSpace=wrap;html=1;fillColor=#f8cecc;strokeColor=#b85450;fontStyle=1" vertex="1" parent="1">
          <mxGeometry x="870" y="360" width="140" height="30" as="geometry" />
        </mxCell>
        <mxCell id="B9Pwn_NhOflRIA-IiDNd-35" value="CUSTOMERS" style="rounded=0;whiteSpace=wrap;html=1;fillColor=#d5e8d4;strokeColor=#82b366;fontStyle=1" vertex="1" parent="1">
          <mxGeometry x="400" y="590" width="140" height="30" as="geometry" />
        </mxCell>
        <mxCell id="B9Pwn_NhOflRIA-IiDNd-36" value="CUSTOMERS" style="rounded=0;whiteSpace=wrap;html=1;fillColor=#d5e8d4;strokeColor=#82b366;fontStyle=1" vertex="1" parent="1">
          <mxGeometry x="870" y="520" width="140" height="30" as="geometry" />
        </mxCell>
        <mxCell id="B9Pwn_NhOflRIA-IiDNd-37" value="CUSTOMERS" style="rounded=0;whiteSpace=wrap;html=1;fillColor=#d5e8d4;strokeColor=#82b366;fontStyle=1" vertex="1" parent="1">
          <mxGeometry x="870" y="660" width="140" height="30" as="geometry" />
        </mxCell>
        <mxCell id="B9Pwn_NhOflRIA-IiDNd-38" style="edgeStyle=orthogonalEdgeStyle;rounded=0;orthogonalLoop=1;jettySize=auto;html=1;exitX=1;exitY=0.5;exitDx=0;exitDy=0;entryX=0;entryY=0.5;entryDx=0;entryDy=0;" edge="1" parent="1" source="B9Pwn_NhOflRIA-IiDNd-6" target="B9Pwn_NhOflRIA-IiDNd-12">
          <mxGeometry relative="1" as="geometry" />
        </mxCell>
        <mxCell id="B9Pwn_NhOflRIA-IiDNd-39" style="edgeStyle=orthogonalEdgeStyle;rounded=0;orthogonalLoop=1;jettySize=auto;html=1;entryX=0;entryY=0.5;entryDx=0;entryDy=0;" edge="1" parent="1" source="B9Pwn_NhOflRIA-IiDNd-7" target="B9Pwn_NhOflRIA-IiDNd-15">
          <mxGeometry relative="1" as="geometry" />
        </mxCell>
        <mxCell id="B9Pwn_NhOflRIA-IiDNd-40" style="edgeStyle=orthogonalEdgeStyle;rounded=0;orthogonalLoop=1;jettySize=auto;html=1;exitX=1;exitY=0.5;exitDx=0;exitDy=0;entryX=0;entryY=0.5;entryDx=0;entryDy=0;" edge="1" parent="1" source="B9Pwn_NhOflRIA-IiDNd-12" target="B9Pwn_NhOflRIA-IiDNd-18">
          <mxGeometry relative="1" as="geometry" />
        </mxCell>
        <mxCell id="B9Pwn_NhOflRIA-IiDNd-41" style="edgeStyle=orthogonalEdgeStyle;rounded=0;orthogonalLoop=1;jettySize=auto;html=1;exitX=1;exitY=0.5;exitDx=0;exitDy=0;entryX=0;entryY=0.5;entryDx=0;entryDy=0;" edge="1" parent="1" source="B9Pwn_NhOflRIA-IiDNd-16" target="B9Pwn_NhOflRIA-IiDNd-20">
          <mxGeometry relative="1" as="geometry" />
        </mxCell>
        <mxCell id="B9Pwn_NhOflRIA-IiDNd-42" style="edgeStyle=orthogonalEdgeStyle;rounded=0;orthogonalLoop=1;jettySize=auto;html=1;entryX=0;entryY=0.5;entryDx=0;entryDy=0;" edge="1" parent="1" source="B9Pwn_NhOflRIA-IiDNd-16" target="B9Pwn_NhOflRIA-IiDNd-22">
          <mxGeometry relative="1" as="geometry" />
        </mxCell>
        <mxCell id="B9Pwn_NhOflRIA-IiDNd-43" value="Enterprise Resource Planning" style="text;html=1;align=center;verticalAlign=middle;whiteSpace=wrap;rounded=0;fontStyle=1" vertex="1" parent="1">
          <mxGeometry x="842.5" y="90" width="215" height="30" as="geometry" />
        </mxCell>
        <mxCell id="B9Pwn_NhOflRIA-IiDNd-44" value="" style="rounded=0;whiteSpace=wrap;html=1;fillColor=none;dashed=1;" vertex="1" parent="1">
          <mxGeometry x="60" y="40" width="1150" height="740" as="geometry" />
        </mxCell>
        <mxCell id="B9Pwn_NhOflRIA-IiDNd-45" value="&lt;b&gt;&lt;font style=&quot;font-size: 22px;&quot;&gt;DATA INTEGRATION&lt;/font&gt;&lt;/b&gt;" style="rounded=1;whiteSpace=wrap;html=1;strokeColor=none;fillColor=default;" vertex="1" parent="1">
          <mxGeometry x="525" y="10" width="220" height="60" as="geometry" />
        </mxCell>
      </root>
    </mxGraphModel>
  </diagram>
</mxfile>
